<svg xmlns="http://www.w3.org/2000/svg" viewBox="0 0 1239 557" width="300" height="135">
	<style>
		tspan { white-space:pre }
		.shp0 { fill: #3f41a2 } 
		.shp1 { fill: #92a9bf } 
	</style>
	<path id="Path 40" class="shp0" d="M392.36 416.82C383.39 416.82 375.21 408.46 375.21 399.27C375.21 394.5 376.95 390.34 380.37 386.91L482.98 290.75C502.4 272.49 520 253.77 522.05 225.63C522.78 222.01 523.14 218.4 523.14 214.79C523.14 207.29 521.6 199.99 518.55 193.09C515.6 186.01 511.06 179.8 505.06 174.64C497.82 168.2 489.06 163.82 479.71 161.98C474.4 160.72 468.91 160.08 463.37 160.08L389.17 160.08C381.74 160.08 374.97 153.51 374.97 146.28C374.97 138.86 381.74 132.09 389.17 132.09L463.78 132.09C516.34 132.09 550.3 161.87 550.3 207.96L550.3 219.72C550.3 263.02 528.54 287.24 504.3 310.23L420.46 388.45L536.87 388.45C546.18 388.45 551.94 395.82 551.94 402.64C551.94 410.33 545.42 416.82 537.7 416.82L392.36 416.82ZM88.36 50.79C88.36 41.79 93.98 35.59 102.99 35.59C111.42 35.59 118.2 41.79 118.2 50.79L118.2 74.75C118.2 83.18 111.42 89.4 102.99 89.4C93.98 89.4 88.36 83.18 88.36 74.75L88.36 50.79ZM88.36 148.55C88.36 140.09 93.98 133.34 102.99 133.34C111.42 133.34 118.2 140.09 118.2 148.55L118.2 385.09C118.2 417.81 112.55 443.72 92.3 473.04L60.72 518.6C57.93 523.66 52.29 524.75 47.73 524.75C38.74 524.75 33.12 519.15 33.12 510.16C33.12 506.81 34.27 504 35.98 500.62L66.36 457.28C83.25 433.04 88.35 410.48 88.35 384.57L88.35 151.9L88.36 148.55ZM315.55 225.18C315.55 185.89 288.46 159.5 256.97 159.5L190.08 159.5L190.08 400.92C190.08 410.46 183.28 417.19 174.84 417.19C166.36 417.19 160.19 409.89 160.19 402.02L160.19 155.57C160.19 143.22 169.74 131.41 183.83 131.41L256.97 131.41C304.26 131.41 345.38 165.66 345.38 225.18L345.38 402.02C345.38 409.89 338.61 417.19 330.18 417.19C321.76 417.19 315.56 409.89 315.56 402.02L315.56 225.18L315.55 225.18Z" />
	<path id="Path 41" fill-rule="evenodd" class="shp1" d="M648.98 243.44C642.34 243.44 637.16 241.56 633.44 237.84C629.71 234.1 627.85 228.89 627.85 222.16C627.85 215.49 629.18 209.3 631.77 203.54C634.38 197.78 637.93 193.35 642.4 190.21C646.86 187.08 651.86 185.53 657.38 185.53C662.81 185.53 667.04 186.73 670.06 189.19C673.05 191.64 674.57 195.1 674.57 199.56C674.57 205.7 671.75 210.49 666.16 213.95C660.54 217.39 652.55 219.13 642.18 219.13L639.98 219.13L639.9 220.7L639.9 222.16C639.9 225.9 640.85 228.84 642.76 230.96C644.66 233.08 647.49 234.14 651.27 234.14C653.68 234.14 656.1 233.82 658.49 233.17C660.88 232.54 663.72 231.45 666.99 229.9L666.99 239.34C663.74 240.83 660.77 241.89 658.06 242.49C655.35 243.12 652.33 243.44 648.98 243.44ZM656.67 194.62C653.43 194.62 650.4 196.08 647.54 198.97C644.7 201.86 642.66 205.68 641.41 210.45L642.88 210.45C649.21 210.45 654.15 209.53 657.74 207.73C661.3 205.93 663.09 203.38 663.09 200.08C663.09 198.37 662.54 197 661.46 196.05C660.4 195.08 658.79 194.62 656.67 194.62ZM738.18 243.44C731.57 243.44 726.46 241.64 722.82 238.08C719.19 234.51 717.35 229.4 717.35 222.79C717.35 215.8 718.59 209.45 721.08 203.73C723.55 198.03 727.03 193.56 731.51 190.35C736 187.13 741.09 185.53 746.78 185.53C752.31 185.53 757.32 186.55 761.79 188.6L758.28 197.9C754.15 196.1 750.42 195.23 747.09 195.23C742.04 195.23 737.83 197.81 734.46 202.98C731.1 208.15 729.39 214.55 729.39 222.16C729.39 225.9 730.34 228.8 732.22 230.8C734.11 232.82 736.72 233.84 740.05 233.84C742.54 233.84 744.9 233.48 747.06 232.73C749.23 232 751.4 231.07 753.62 229.99L753.62 239.86C748.89 242.24 743.74 243.44 738.18 243.44ZM815.37 207.45C815.37 214.25 814.14 220.46 811.69 226.04C809.2 231.6 805.82 235.9 801.54 238.87C797.25 241.85 792.31 243.34 786.7 243.34C780.24 243.34 775.11 241.41 771.29 237.55C767.49 233.7 765.58 228.44 765.58 221.81C765.58 215.1 766.8 208.95 769.2 203.36C771.6 197.78 774.99 193.39 779.33 190.28C783.69 187.16 788.69 185.61 794.39 185.61C800.96 185.61 806.08 187.57 809.81 191.47C813.52 195.39 815.37 200.72 815.37 207.45ZM803.39 206.93C803.39 203.33 802.57 200.52 800.93 198.47C799.26 196.43 796.91 195.41 793.82 195.41C790.7 195.41 787.9 196.61 785.43 199.03C782.94 201.45 781.03 204.71 779.65 208.83C778.29 212.97 777.6 217.37 777.6 222.06C777.6 225.79 778.43 228.67 780.12 230.64C781.78 232.64 784.25 233.63 787.52 233.63C790.56 233.63 793.27 232.48 795.71 230.19C798.12 227.9 800.03 224.69 801.37 220.57C802.7 216.45 803.39 211.89 803.39 206.93ZM860.96 185.53C868.37 185.53 872.66 189.49 873.8 197.4L874.19 197.4C876.73 193.49 879.59 190.55 882.82 188.53C886.05 186.53 889.39 185.53 892.86 185.53C897.34 185.53 900.74 186.79 903.09 189.38C905.42 191.96 906.6 195.59 906.6 200.29C906.6 202.44 906.24 205.48 905.49 209.43L898.41 242.45L886.53 242.45L893.76 208.47C894.39 205.28 894.72 203.03 894.72 201.74C894.72 197.4 892.7 195.23 888.62 195.23C884.97 195.23 881.58 197.32 878.41 201.5C875.28 205.67 872.96 211.23 871.53 218.13L866.41 242.45L854.52 242.45L861.76 208.47C862.33 205.7 862.62 203.58 862.62 202.06C862.62 197.5 860.65 195.23 856.71 195.23C853 195.23 849.58 197.37 846.41 201.65C843.27 205.92 840.94 211.62 839.42 218.73L834.48 242.45L822.53 242.45L834.48 186.53L843.76 186.53L842.71 196.89L843.17 196.89C848.17 189.32 854.09 185.53 860.96 185.53ZM952.92 185.53C960.32 185.53 964.6 189.49 965.73 197.4L966.16 197.4C968.68 193.49 971.55 190.55 974.78 188.53C977.98 186.53 981.33 185.53 984.79 185.53C989.28 185.53 992.7 186.79 995.03 189.38C997.37 191.96 998.54 195.59 998.54 200.29C998.54 202.44 998.19 205.48 997.44 209.43L990.36 242.45L978.49 242.45L985.71 208.47C986.35 205.28 986.68 203.03 986.68 201.74C986.68 197.4 984.64 195.23 980.56 195.23C976.9 195.23 973.52 197.32 970.38 201.5C967.22 205.67 964.93 211.23 963.47 218.13L958.38 242.45L946.5 242.45L953.71 208.47C954.28 205.7 954.58 203.58 954.58 202.06C954.58 197.5 952.6 195.23 948.66 195.23C944.95 195.23 941.53 197.37 938.38 201.65C935.21 205.92 932.88 211.62 931.35 218.73L926.41 242.45L914.48 242.45L926.41 186.53L935.72 186.53L934.66 196.89L935.11 196.89C940.11 189.32 946.03 185.53 952.92 185.53ZM1029.94 243.44C1023.3 243.44 1018.11 241.56 1014.4 237.84C1010.67 234.1 1008.82 228.89 1008.82 222.16C1008.82 215.49 1010.13 209.3 1012.75 203.54C1015.34 197.78 1018.89 193.35 1023.35 190.21C1027.81 187.08 1032.82 185.53 1038.34 185.53C1043.77 185.53 1047.99 186.73 1051.01 189.19C1054.02 191.64 1055.53 195.1 1055.53 199.56C1055.53 205.7 1052.71 210.49 1047.12 213.95C1041.5 217.39 1033.51 219.13 1023.13 219.13L1020.95 219.13L1020.86 220.7L1020.86 222.16C1020.86 225.9 1021.79 228.84 1023.7 230.96C1025.59 233.09 1028.43 234.14 1032.23 234.14C1034.63 234.14 1037.06 233.82 1039.45 233.17C1041.83 232.54 1044.67 231.45 1047.94 229.9L1047.94 239.34C1044.7 240.83 1041.74 241.89 1039.01 242.49C1036.31 243.12 1033.28 243.44 1029.94 243.44ZM1037.61 194.62C1034.39 194.62 1031.35 196.08 1028.5 198.97C1025.66 201.86 1023.61 205.68 1022.34 210.45L1023.83 210.45C1030.15 210.45 1035.09 209.53 1038.69 207.73C1042.26 205.93 1044.04 203.38 1044.04 200.08C1044.04 198.37 1043.49 197 1042.42 196.05C1041.34 195.08 1039.75 194.62 1037.61 194.62ZM1098.69 185.53C1100.78 185.53 1102.58 185.73 1104.15 186.12L1101.57 197.18C1099.75 196.71 1098.03 196.49 1096.4 196.49C1092.16 196.49 1088.37 198.4 1085.05 202.18C1081.69 206 1079.36 210.98 1078.05 217.14L1072.7 242.44L1060.77 242.44L1072.7 186.53L1082 186.53L1080.96 196.88L1081.4 196.88C1084.2 192.84 1086.99 189.94 1089.79 188.16C1092.58 186.4 1095.56 185.53 1098.69 185.53ZM1126.23 243.44C1119.61 243.44 1114.51 241.64 1110.87 238.08C1107.24 234.51 1105.4 229.4 1105.4 222.79C1105.4 215.8 1106.64 209.45 1109.12 203.73C1111.62 198.03 1115.08 193.56 1119.57 190.35C1124.04 187.13 1129.14 185.53 1134.83 185.53C1140.38 185.53 1145.36 186.55 1149.84 188.6L1146.32 197.9C1142.2 196.1 1138.5 195.23 1135.14 195.23C1130.08 195.23 1125.88 197.81 1122.51 202.98C1119.13 208.15 1117.44 214.55 1117.44 222.16C1117.44 225.9 1118.39 228.8 1120.27 230.8C1122.17 232.82 1124.77 233.84 1128.1 233.84C1130.59 233.84 1132.93 233.48 1135.12 232.73C1137.28 232 1139.45 231.07 1141.64 229.99L1141.64 239.86C1136.94 242.24 1131.79 243.44 1126.23 243.44ZM1174.76 243.44C1168.12 243.44 1162.93 241.56 1159.23 237.84C1155.49 234.1 1153.63 228.89 1153.63 222.16C1153.63 215.49 1154.95 209.3 1157.55 203.54C1160.16 197.78 1163.71 193.35 1168.18 190.21C1172.63 187.08 1177.62 185.53 1183.16 185.53C1188.59 185.53 1192.81 186.73 1195.81 189.19C1198.83 191.64 1200.33 195.1 1200.33 199.56C1200.33 205.7 1197.53 210.49 1191.94 213.95C1186.33 217.39 1178.34 219.13 1167.95 219.13L1165.78 219.13L1165.67 220.7L1165.67 222.16C1165.67 225.9 1166.62 228.84 1168.52 230.96C1170.42 233.09 1173.27 234.14 1177.04 234.14C1179.46 234.14 1181.88 233.82 1184.28 233.17C1186.66 232.54 1189.48 231.45 1192.77 229.9L1192.77 239.34C1189.53 240.83 1186.54 241.89 1183.84 242.49C1181.13 243.12 1178.1 243.44 1174.76 243.44ZM1182.44 194.62C1179.22 194.62 1176.16 196.08 1173.32 198.97C1170.48 201.86 1168.43 205.68 1167.17 210.45L1168.65 210.45C1174.98 210.45 1179.92 209.53 1183.49 207.73C1187.08 205.93 1188.86 203.38 1188.86 200.08C1188.86 198.37 1188.31 197 1187.24 196.05C1186.17 195.08 1184.57 194.62 1182.44 194.62ZM639.5 339.54C632.88 339.54 627.69 337.65 623.96 333.93C620.25 330.17 618.39 324.96 618.39 318.25C618.39 311.56 619.68 305.38 622.3 299.63C624.91 293.88 628.44 289.45 632.91 286.31C637.38 283.17 642.37 281.61 647.91 281.61C653.32 281.61 657.54 282.82 660.56 285.27C663.59 287.71 665.1 291.17 665.1 295.66C665.1 301.8 662.29 306.58 656.66 310.04C651.07 313.5 643.06 315.23 632.68 315.23L630.51 315.23L630.41 316.79L630.41 318.25C630.41 322 631.36 324.94 633.27 327.05C635.17 329.18 638.01 330.24 641.78 330.24C644.21 330.24 646.63 329.92 649.01 329.28C651.4 328.63 654.23 327.54 657.49 325.99L657.49 335.45C654.28 336.93 651.29 337.98 648.57 338.61C645.88 339.21 642.83 339.54 639.5 339.54ZM647.19 290.71C643.95 290.71 640.92 292.15 638.07 295.04C635.21 297.95 633.18 301.76 631.92 306.51L633.39 306.51C639.74 306.51 644.68 305.61 648.24 303.82C651.82 302.01 653.62 299.46 653.62 296.16C653.62 294.45 653.07 293.1 651.99 292.15C650.92 291.17 649.33 290.71 647.19 290.71ZM692.67 318.95L677.27 338.52L663.61 338.52L687.62 309.75L675.95 282.61L688.33 282.61L695.61 301.48L710.13 282.61L723.96 282.61L700.66 310.37L713.21 338.52L700.76 338.52L692.67 318.95Z" />
	<path id="Path 42" fill-rule="evenodd" class="shp1" d="M749.35 339.54C743.24 339.54 738.72 336.57 735.74 330.63L735.24 330.63C735.01 333.9 734.59 337.02 733.99 339.99L729.14 363.38L717.35 363.38L734.45 282.61L743.74 282.61L742.68 292.1L743.13 292.1C748.43 285.11 754.22 281.6 760.52 281.6C765.33 281.6 769.13 283.33 771.84 286.81C774.58 290.28 775.93 295.1 775.93 301.26C775.93 308.14 774.76 314.57 772.41 320.54C770.04 326.53 766.84 331.18 762.77 334.52C758.69 337.85 754.23 339.54 749.35 339.54ZM756.06 291.31C753.35 291.31 750.63 292.65 747.93 295.32C745.24 298.01 743.05 301.55 741.33 305.96C739.63 310.38 738.78 314.93 738.78 319.65C738.78 322.9 739.55 325.42 741.14 327.21C742.7 329.03 744.91 329.92 747.76 329.92C750.64 329.92 753.32 328.61 755.82 325.96C758.31 323.33 760.27 319.78 761.74 315.35C763.18 310.92 763.9 306.29 763.9 301.48C763.91 294.7 761.3 291.31 756.06 291.31ZM806.67 339.54C800.02 339.54 794.85 337.65 791.13 333.93C787.39 330.17 785.55 324.96 785.55 318.25C785.55 311.56 786.84 305.38 789.46 299.63C792.08 293.88 795.61 289.45 800.07 286.31C804.52 283.17 809.54 281.61 815.08 281.61C820.49 281.61 824.71 282.82 827.73 285.27C830.75 287.71 832.26 291.17 832.26 295.66C832.26 301.8 829.44 306.58 823.83 310.04C818.21 313.5 810.23 315.23 799.85 315.23L797.68 315.23L797.58 316.79L797.58 318.25C797.58 322 798.52 324.94 800.43 327.05C802.34 329.18 805.18 330.24 808.95 330.24C811.36 330.24 813.77 329.92 816.17 329.28C818.55 328.63 821.4 327.54 824.66 325.99L824.66 335.45C821.44 336.93 818.45 337.98 815.73 338.61C813.02 339.21 810 339.54 806.67 339.54ZM814.36 290.71C811.12 290.71 808.07 292.15 805.24 295.04C802.38 297.95 800.32 301.76 799.09 306.51L800.56 306.51C806.88 306.51 811.84 305.61 815.41 303.82C818.98 302.01 820.76 299.46 820.76 296.16C820.76 294.45 820.22 293.1 819.13 292.15C818.07 291.17 816.48 290.71 814.36 290.71ZM875.41 281.6C877.5 281.6 879.33 281.8 880.86 282.21L878.29 293.28C876.46 292.82 874.75 292.57 873.15 292.57C868.88 292.57 865.09 294.47 861.77 298.28C858.42 302.09 856.11 307.08 854.79 313.23L849.43 338.53L837.5 338.53L849.43 282.61L858.72 282.61L857.67 292.97L858.12 292.97C860.91 288.93 863.71 286.02 866.51 284.25C869.3 282.48 872.27 281.6 875.41 281.6ZM900.37 329.92C902.67 329.92 905.22 329.4 908.02 328.36L908.02 337.36C906.82 337.93 905.24 338.44 903.21 338.87C901.18 339.3 899.15 339.53 897.15 339.53C887.9 339.53 883.3 335.37 883.3 327.04C883.3 325.11 883.57 322.91 884.1 320.42L890.22 291.61L882.03 291.61L883.09 286.04L892.7 281.9L899.22 270.18L906.6 270.18L903.97 282.61L918.08 282.61L916.12 291.61L902.1 291.61L895.94 320.52C895.49 322.38 895.29 323.93 895.29 325.16C895.29 326.62 895.69 327.76 896.54 328.63C897.37 329.48 898.66 329.92 900.37 329.92ZM707.08 218.12L679.74 218.12L679.74 210.93L707.08 210.93L707.08 218.12Z" />
</svg>